<?xml version="1.0" encoding="utf-8"?>
<!-- Generator: Adobe Illustrator 27.0.0, SVG Export Plug-In . SVG Version: 6.00 Build 0)  -->
<svg version="1.1" id="Layer_1" xmlns="http://www.w3.org/2000/svg" xmlns:xlink="http://www.w3.org/1999/xlink" x="0px" y="0px"
	 viewBox="0 0 627 627" style="enable-background:new 0 0 627 627;" xml:space="preserve">
<style type="text/css">
	.st0{fill:#2D4C91;}
	.st1{fill:#425D9C;}
	.st2{fill:#FFFFFF;}
</style>
<g>
	<path class="st0" d="M313.5,546.6C442.4,546.6,547,442,547,313.1S442.4,79.6,313.5,79.6S80,184.2,80,313.1S184.6,546.6,313.5,546.6
		z"/>
	<path class="st1" d="M478.6,478c-42.3,42.3-100.7,68.4-165.1,68.4C184.6,546.4,80,441.8,80,312.9c0-64.5,26.2-122.9,68.4-165.1
		L478.6,478L478.6,478z"/>
	<path class="st2" d="M136.2,343.8c6.5,0,10.1-4.3,10.1-10.4s-3.6-10.3-10.1-10.3c-6.5,0-10.1,4.3-10.1,10.3
		C126.1,339.3,129.6,343.8,136.2,343.8z M173.7,342.3h14.5v-94.9h0.7l61.3,94.8h16.4V222.4h-14.7v95.5h-0.7l-61.3-95.4h-16.3
		C173.7,222.5,173.7,342.3,173.7,342.3z M301,342.3h77v-13.5h-62.2v-41.5h56.9v-13.7h-56.9v-37.5h62.2v-13.7h-77V342.3L301,342.3z
		 M431.6,342.3h15.1V236.2h37.2v-13.7h-89.3v13.7h37.2L431.6,342.3L431.6,342.3z M220.4,435.7h6.5v-43.9h0.3l19.4,34.6h0.7
		l19.4-34.3h0.3v43.7h6.5v-54.5h-7.9l-18.4,33.2h-0.5l-18.4-33.2h-8L220.4,435.7L220.4,435.7z M311.7,381.2h-8.3l-20,53.7v0.7h7
		l5.1-14.3h23.8l5.1,14.3h7.2v-0.7L311.7,381.2L311.7,381.2z M297.7,415.4l9.6-26.6h0.3l9.6,26.6H297.7z M360.2,436.5
		c13,0,20.8-7.5,20.8-19.9v-35.2h-6.8v35.1c0,8.4-4.5,13.8-14,13.8c-9.5,0-13.9-5.4-13.9-13.8v-35.1h-6.8v35.2
		C339.5,429.1,347.5,436.5,360.2,436.5z M395.9,435.7h6.8v-54.5h-6.8V435.7z"/>
</g>
</svg>
